<svg width="125" height="140" viewBox="0 0 125 140" fill="none" xmlns="http://www.w3.org/2000/svg">
<mask id="mask0_3247_36192" style="mask-type:alpha" maskUnits="userSpaceOnUse" x="0" y="0" width="125" height="140">
<rect width="125" height="140" fill="#D9D9D9"/>
</mask>
<g mask="url(#mask0_3247_36192)">
<path d="M105.71 97.2778C103.44 103.038 5.61956 87.3178 6.54956 99.3078C7.47956 111.298 17.9696 120.158 29.9896 119.108C31.0896 119.008 32.1695 118.838 33.2095 118.588C34.4095 118.508 35.6095 118.318 36.7795 118.028C37.3195 118.058 47.5396 115.718 57.1696 115.798C76.3596 115.958 87.6495 115.578 88.3795 110.908C88.6395 109.228 87.3495 108.038 87.3495 108.038C107.18 103.668 105.71 97.2778 105.71 97.2778Z" fill="#1D61A1"/>
<path d="M103.32 94.7778C111.33 90.6978 117.15 85.0878 117.07 83.1578C116.95 80.4878 91.5795 69.9378 55.9095 71.2978C42.6595 71.8078 19.2096 71.6077 10.6696 83.6477C4.14955 92.8477 5.03956 105.218 13.7996 112.138C18.8996 116.168 25.3595 117.328 31.2595 115.858C31.7995 115.888 47.4095 112.528 57.0195 112.858C73.0495 113.408 82.3495 112.498 83.1395 110.438C83.7995 108.728 77.8095 104.288 77.8095 104.288C88.7495 107.048 104.25 101.638 105.7 97.6777C106.09 96.5877 103.32 94.7778 103.32 94.7778Z" fill="#1277B2"/>
<path d="M7.09922 84.9878L-24.3208 58.9878L-25.9408 61.1178C-41.1008 80.3478 -45.9308 103.838 -30.7208 117.048C-29.8008 117.838 -28.7908 118.488 -27.7008 118.998C-25.6908 119.928 -23.8208 121.088 -22.1208 122.448C-20.3708 123.758 -18.7808 125.268 -17.3808 126.978C-16.6208 127.908 -15.7408 128.718 -14.7408 129.408C1.8792 140.808 23.5392 130.328 38.4992 110.948L40.1692 108.858L7.09922 84.9878Z" fill="#1D61A1"/>
<path d="M57.4093 25.2378C62.0193 7.53778 79.8993 14.5778 77.7393 10.7178C74.9893 5.80778 65.3493 4.29778 54.1993 8.26778C43.0493 12.2378 35.5193 19.7678 37.3693 25.0978C39.2193 30.4178 54.4393 36.6678 57.4093 25.2378Z" fill="#1277B2"/>
<path d="M62.6595 33.5078C78.9595 25.0878 85.3695 43.1878 86.8495 38.9878C88.7395 33.6378 83.5695 25.4178 73.2995 19.7378C63.0295 14.0578 52.4495 13.4678 49.6595 18.4278C46.8695 23.3678 52.1395 38.9378 62.6595 33.5078Z" fill="#1277B2"/>
<path d="M66.2597 66.7278C78.3397 51.2178 71.7697 26.1678 60.1997 16.8478V16.8578C48.2597 7.99778 22.2597 7.85778 10.1597 23.3578C5.23968 29.6578 -17.9903 50.6778 -24.4903 59.0078C-37.9403 76.2278 -35.0903 99.9778 -23.7003 108.958C-22.7403 109.718 -21.7203 110.358 -20.6403 110.898C-18.8603 111.788 -17.1803 112.848 -15.6103 114.048V114.038C-14.0503 115.258 -12.6003 116.608 -11.3003 118.108C-10.5103 119.018 -9.63032 119.838 -8.65032 120.578C2.90968 129.338 26.7297 126.208 40.1597 108.968C46.6397 100.638 61.3497 73.0278 66.2597 66.7278Z" fill="#1277B2"/>
<path d="M34.4491 72.5477C28.569 80.0077 19.0691 82.0277 13.0391 77.3177C7.00908 72.6077 6.71907 62.9377 12.5991 55.4777C18.4791 48.0177 26.0791 39.7077 36.3491 47.7477C46.6391 55.7877 40.3291 65.0877 34.4491 72.5477Z" fill="#2D2A39"/>
<path d="M34.2386 70.6878C28.3586 78.1478 21.4285 77.8678 15.9685 73.6078C10.5085 69.3378 8.58854 62.6978 14.4685 55.2378C20.3485 47.7778 31.8085 42.3178 37.2685 46.5878C42.7185 50.8478 40.1186 63.2178 34.2386 70.6878Z" fill="#201E26"/>
<path d="M43.2995 61.9078C43.2995 61.9078 49.5195 41.5678 44.4495 37.5978C44.3895 37.5478 44.3194 37.4977 44.2494 37.4577C44.1894 37.4077 44.1294 37.3478 44.0694 37.2978C38.9994 33.3378 20.6294 44.1878 20.6294 44.1878C15.1994 47.4878 20.0995 59.9378 21.7795 63.7778C21.9695 64.2078 22.2795 64.5678 22.6695 64.8278C23.0195 65.1378 23.4495 65.3578 23.9095 65.4378C28.0695 66.1578 41.3695 67.9378 43.2995 61.9078Z" fill="#F2B944"/>
<path d="M44.1194 65.4778C44.1194 65.4778 44.4094 63.5278 44.6494 60.7078C45.1894 54.4878 45.4794 44.0578 41.8494 41.2178C41.7794 41.1678 41.7094 41.1178 41.6494 41.0678C41.5894 41.0078 41.5194 40.9578 41.4594 40.9078C37.7394 37.9978 27.0994 40.9778 21.1494 42.9878C18.6594 43.8278 16.9994 44.4978 16.9994 44.4978C11.6694 47.5378 18.2494 62.2778 20.0994 66.1478C20.3094 66.5778 20.6394 66.9478 21.0394 67.2278C21.3994 67.5478 21.8394 67.7878 22.3094 67.8878C26.5194 68.7478 42.4294 71.3578 44.1194 65.4778Z" fill="#2D2A39"/>
<path d="M34.1892 60.7078C30.1392 65.8478 23.2992 67.2278 23.6392 67.4978C23.6392 67.4978 27.9592 64.1378 32.0092 58.9978C36.0592 53.8578 37.5391 48.2778 38.3091 48.8878C39.0791 49.4978 38.2392 55.5678 34.1892 60.7078Z" fill="#5E5659"/>
<path d="M9.64922 103.268C3.89922 110.578 -5.32076 112.918 -10.9608 108.488C-16.5908 104.058 -16.5008 94.5278 -10.7508 87.2178C-5.0008 79.9078 4.21923 77.5678 9.84924 81.9978C15.4892 86.4278 15.3892 95.9477 9.64922 103.268Z" fill="#1D61A1"/>
<path d="M46.179 87.6178C52.089 87.4178 57.149 85.0378 59.989 80.2378C59.989 80.2378 65.3789 71.7678 64.9089 68.5378C64.7389 67.3578 62.959 65.8878 60.799 68.4478C60.799 68.4478 59.5189 78.4678 50.4489 83.2478C42.3489 87.5178 33.1689 88.0578 33.1689 88.0578L46.179 87.6178Z" fill="#1D61A1"/>
<path d="M-4.93049 48.0978C-6.20048 42.3478 -5.14048 36.8778 -1.17048 32.9478C-1.17048 32.9478 5.73951 25.6478 8.99951 25.3078C10.1895 25.1778 12.0596 26.5378 10.1096 29.2478C10.1096 29.2478 0.679527 32.9678 -1.73047 42.8978C-3.88047 51.7678 -2.1305 60.7578 -2.1305 60.7578L-4.93049 48.0978Z" fill="#1D61A1"/>
<path d="M10.3294 20.7278C4.8794 28.7478 11.3394 35.2678 19.1794 37.1778C19.9394 37.3678 23.5494 38.1578 25.4794 38.0078C28.4594 37.7778 30.9594 36.6378 34.9494 30.2578C40.5894 21.2478 41.5494 11.7078 37.0894 8.94776C32.6394 6.19776 19.9794 6.52776 10.3294 20.7278Z" fill="#A4CBE6"/>
<path d="M9.58959 22.9678C6.29959 27.7878 11.2796 32.4978 14.8096 34.6778C16.3396 35.6178 19.3496 36.4978 21.3696 36.6678C23.7196 36.8778 26.7096 36.4978 28.6696 33.9178C33.7196 27.2478 36.7996 13.8378 33.0696 11.5378C29.3396 9.23777 17.2096 11.8178 9.58959 22.9678Z" fill="white"/>
<path d="M28.4192 25.5478C26.7492 23.6578 26.9492 20.7677 28.8592 19.0877C29.2592 18.7377 29.6992 18.4678 30.1592 18.2778C29.9692 18.0778 29.7692 17.8878 29.5392 17.7178C26.4092 15.3278 21.3092 16.7277 18.1392 20.8377C14.9692 24.9477 14.9392 30.2178 18.0592 32.6078C21.1892 34.9978 26.2892 33.5978 29.4592 29.4878C30.0792 28.6878 30.5692 27.8377 30.9492 26.9777C30.0092 26.7977 29.1092 26.3278 28.4192 25.5478Z" fill="#201E26"/>
<path d="M68.7595 66.4178C61.5995 74.2878 52.8095 68.0078 49.6695 59.7378C47.7895 54.7878 46.1695 52.4677 53.6195 44.8677C61.0695 37.2677 70.1495 34.0778 73.8995 37.7378C77.6395 41.3878 80.3195 53.7078 68.7595 66.4178Z" fill="#A4CBE6"/>
<path d="M66.7496 67.6578C63.2096 71.5678 58.1497 68.9378 55.0197 66.2478C53.1897 64.6778 51.5597 61.8978 50.9797 60.5578C49.9997 58.2978 49.1297 54.7378 51.5297 51.8078C56.8297 45.3378 69.1896 39.1778 72.3196 42.2378C75.4596 45.3078 75.8196 57.6478 66.7496 67.6578Z" fill="white"/>
<path d="M67.1294 47.1178C66.9094 46.9378 66.6793 46.7878 66.4393 46.6578C66.3593 47.1478 66.2094 47.6378 65.9594 48.1078C64.7694 50.3478 61.9994 51.2278 59.7594 50.0678C58.8394 49.5878 58.1594 48.8278 57.7594 47.9478C57.0094 48.5178 56.2994 49.1978 55.6694 49.9878C52.4094 54.0278 52.2594 59.2978 55.3294 61.7578C58.3994 64.2178 63.5294 62.9278 66.7894 58.8878C70.0494 54.8478 70.1994 49.5778 67.1294 47.1178Z" fill="#201E26"/>
</g>
</svg>
