<svg width="131" height="20" viewBox="0 0 131 20" fill="none" xmlns="http://www.w3.org/2000/svg">
<g id="Group">
<path id="Vector" d="M21.5135 3.99695C21.4903 3.96229 21.4786 3.93919 21.4786 3.93919C21.4786 3.93919 21.4787 3.92764 21.467 3.92764C20.246 1.81365 18.1063 0.404316 15.7223 0.0693115C15.7107 0.0693115 15.7107 0.0693115 15.6991 0.0693115C15.2107 2.61647e-07 14.8967 0 14.8502 0C14.8385 0 14.8269 0 14.8036 0C14.7571 0 14.699 0 14.6525 0H7.84953C3.51194 0 0 3.48867 0 7.79752V8.73322C0 10.3158 0.476787 11.8291 1.38384 13.1345C2.23276 14.359 3.39565 15.3062 4.75624 15.8954C7.37275 19.4996 10.5009 19.6151 10.6288 19.6151L15.3502 19.6613V16.5076C15.9898 16.4614 17.0364 16.2766 18.2225 15.6643C20.7577 14.3705 22.502 11.7483 22.502 8.72167V8.60615C22.5136 8.40977 22.5136 8.21338 22.502 8.00545V7.78596C22.5136 6.46905 22.1648 5.15214 21.5135 3.99695ZM21.3507 8.60615C21.3507 8.6177 21.3507 8.6408 21.3507 8.65236C21.3507 8.69856 21.3507 8.74477 21.3391 8.79098C21.3391 8.82563 21.3391 8.84874 21.3275 8.88339C21.3275 8.91805 21.3275 8.94115 21.3158 8.97581C21.3158 9.01046 21.3158 9.03357 21.3042 9.06822C21.3042 9.10288 21.3042 9.13754 21.2926 9.16064C21.2926 9.19529 21.281 9.2184 21.281 9.25305C21.281 9.28771 21.2693 9.31081 21.2693 9.34547C21.2693 9.38012 21.2577 9.40323 21.2577 9.43788C21.2577 9.47254 21.2461 9.49564 21.2461 9.5303C21.2461 9.56495 21.2344 9.58806 21.2344 9.62271C21.2344 9.65737 21.2228 9.69202 21.2228 9.71513C21.2228 9.74978 21.2112 9.77289 21.2112 9.80754C21.1996 9.8422 21.1996 9.87686 21.1879 9.91151C21.1879 9.93461 21.1763 9.96927 21.1647 9.99237C21.153 10.027 21.153 10.0617 21.1414 10.0963C21.1298 10.1194 21.1298 10.1541 21.1182 10.1772C21.1065 10.2119 21.1065 10.2465 21.0949 10.2812C21.0833 10.3043 21.0833 10.3274 21.0716 10.362C21.06 10.3967 21.0484 10.4313 21.0484 10.466C21.0367 10.4891 21.0367 10.5122 21.0251 10.5353C21.0135 10.57 21.0019 10.6046 20.9902 10.6508C20.9786 10.6739 20.9786 10.697 20.967 10.7201C20.9553 10.7548 20.9437 10.801 20.9321 10.8357C20.9205 10.8588 20.9205 10.8819 20.9088 10.905C20.8972 10.9396 20.8856 10.9743 20.8739 11.0089C20.8623 11.032 20.8507 11.0551 20.8507 11.0782C20.8391 11.1129 20.8274 11.1476 20.8158 11.1822C20.8042 11.2169 20.7925 11.2515 20.7809 11.2746C20.7693 11.2977 20.7577 11.3324 20.746 11.3555C20.7228 11.4133 20.6995 11.471 20.6763 11.5288C20.6646 11.5634 20.653 11.5981 20.6297 11.6212C20.6297 11.6327 20.6181 11.6443 20.6181 11.6558C20.6065 11.6789 20.5949 11.7021 20.5832 11.7252C20.5716 11.7367 20.5716 11.7483 20.56 11.7598C20.5483 11.7829 20.5367 11.806 20.5251 11.8291C20.5251 11.8407 20.5134 11.8522 20.5134 11.8522C20.4902 11.8869 20.4786 11.9215 20.4553 11.9562C20.4553 11.9677 20.4437 11.9677 20.4437 11.9793C20.432 12.0024 20.4088 12.0371 20.3972 12.0602C20.3855 12.0717 20.3855 12.0833 20.3739 12.0948C20.3623 12.1179 20.339 12.141 20.3274 12.1641C20.3158 12.1757 20.3158 12.1872 20.3041 12.1988C20.2809 12.2219 20.2692 12.2565 20.246 12.2796C20.246 12.2912 20.2344 12.2912 20.2344 12.3027C20.2111 12.3374 20.1878 12.3721 20.1646 12.4067C20.1529 12.4183 20.1529 12.4298 20.1413 12.4298C20.1181 12.4529 20.1064 12.476 20.0832 12.4991C20.0715 12.5107 20.0715 12.5222 20.0599 12.5338C20.0483 12.5569 20.025 12.58 20.0134 12.6031C20.0018 12.6146 20.0018 12.6262 19.9901 12.6378C19.9669 12.6609 19.9436 12.6955 19.9204 12.7186C19.9204 12.7186 19.9204 12.7302 19.9087 12.7302C19.8855 12.7648 19.8622 12.7879 19.839 12.8226C19.8273 12.8341 19.8273 12.8457 19.8157 12.8457C19.8041 12.8688 19.7808 12.8919 19.7692 12.9034C19.7576 12.915 19.7576 12.9266 19.7459 12.9381C19.7343 12.9612 19.711 12.9728 19.6994 12.9959C19.6878 13.0074 19.6878 13.019 19.6762 13.019C19.6529 13.0421 19.6296 13.0767 19.6064 13.0998L19.5948 13.1114C19.5715 13.1345 19.5599 13.1576 19.5366 13.1691C19.5366 13.1691 19.5366 13.1807 19.525 13.1807C19.525 13.1807 18.9901 13.7467 18.6877 13.9778C18.5249 14.1048 18.3505 14.2204 18.1877 14.3243C17.3271 14.8557 16.3619 15.1907 15.3502 15.2947L14.1873 15.3293V18.5061L10.6521 18.4715C10.5242 18.4715 8.67519 18.3559 6.74479 16.4614C6.08194 15.7799 5.8261 15.4564 5.53537 14.9712V14.9597C4.52366 14.3128 4.2213 14.1279 3.88407 13.8276L3.86081 13.816C2.27927 12.6955 1.26755 10.9281 1.18615 8.99891C1.18615 8.91805 1.18615 8.82563 1.18615 8.74477V7.80907C1.18615 4.13557 4.18642 1.16674 7.87279 1.16674H15.42V1.15519C15.7921 1.2014 16.3154 1.35157 16.9085 1.57106C18.4202 2.12555 19.6064 3.11901 20.4553 4.52834C20.4553 4.52834 20.4553 4.52834 20.4553 4.53989C20.5483 4.71317 21.2577 6.11094 21.3275 8.02855L21.3507 8.60615Z" fill="white"/>
<g id="Group_2">
<g id="Group_3">
<g id="Group_4">
<g id="Group_5">
<path id="Vector_2" d="M83.0772 4.40131C84.4843 4.40131 85.6705 4.93269 86.6706 5.98391C87.659 7.03513 88.1591 8.32894 88.1591 9.86534C88.1591 11.3902 87.659 12.684 86.6706 13.7468C85.6821 14.798 84.4843 15.3294 83.0772 15.3294C81.6236 15.3294 80.4956 14.8211 79.7048 13.8161V19.1762H77.0186V4.6901H79.7048V5.9146C80.4956 4.90959 81.6236 4.40131 83.0772 4.40131ZM80.5189 11.9562C81.0654 12.4992 81.7515 12.7764 82.5772 12.7764C83.4145 12.7764 84.1006 12.4992 84.6471 11.9562C85.1937 11.4133 85.4728 10.7086 85.4728 9.85379C85.4728 8.99895 85.1937 8.29429 84.6471 7.75135C84.1006 7.20841 83.4028 6.93117 82.5772 6.93117C81.7399 6.93117 81.0538 7.20841 80.5189 7.75135C79.9723 8.29429 79.7048 8.99895 79.7048 9.85379C79.7048 10.7086 79.9723 11.4133 80.5189 11.9562Z" fill="#F7F8FD"/>
<path id="Vector_3" d="M98.9972 4.69006H101.683V15.029H98.9972V13.8045C98.1948 14.8095 97.0668 15.3178 95.6016 15.3178C94.2177 15.3178 93.0199 14.7864 92.0315 13.7352C91.043 12.684 90.543 11.3901 90.543 9.85375C90.543 8.3289 91.043 7.03509 92.0315 5.97232C93.0199 4.9211 94.2177 4.38971 95.6016 4.38971C97.0552 4.38971 98.1948 4.89799 98.9972 5.90301V4.69006ZM94.0433 11.9562C94.5898 12.4991 95.2759 12.7764 96.1016 12.7764C96.9389 12.7764 97.625 12.4991 98.1716 11.9562C98.7181 11.4133 98.9972 10.7086 98.9972 9.85375C98.9972 8.99891 98.7181 8.29424 98.1716 7.75131C97.625 7.20837 96.9389 6.93112 96.1016 6.93112C95.2643 6.93112 94.5782 7.20837 94.0433 7.75131C93.4967 8.29424 93.2293 8.99891 93.2293 9.85375C93.2293 10.7086 93.5083 11.4133 94.0433 11.9562Z" fill="#F7F8FD"/>
<path id="Vector_4" d="M110.115 15.3178C108.545 15.3178 107.242 14.798 106.196 13.7467C105.149 12.6955 104.626 11.4017 104.626 9.85375C104.626 8.3058 105.149 7.01199 106.196 5.96076C107.242 4.90954 108.557 4.38971 110.115 4.38971C111.127 4.38971 112.045 4.6323 112.883 5.11748C113.72 5.60266 114.348 6.24956 114.778 7.05819L112.464 8.39821C112.255 7.97079 111.941 7.63579 111.522 7.38165C111.103 7.13906 110.627 7.01199 110.092 7.01199C109.289 7.01199 108.626 7.27768 108.091 7.80907C107.568 8.34045 107.301 9.02201 107.301 9.8422C107.301 10.6508 107.568 11.3324 108.091 11.8638C108.615 12.3952 109.289 12.6609 110.092 12.6609C110.638 12.6609 111.115 12.5453 111.534 12.3027C111.952 12.0602 112.278 11.7252 112.476 11.2977L114.801 12.6262C114.348 13.4348 113.697 14.0933 112.871 14.5785C112.045 15.0752 111.127 15.3178 110.115 15.3178Z" fill="#F7F8FD"/>
</g>
<path id="Vector_5" d="M126.163 4.7594H122.453C119.79 4.7594 117.615 6.9196 117.615 9.56498V10.3852C117.615 11.471 117.987 12.4876 118.615 13.2962C118.464 14.2897 118.313 15.1676 118.313 15.1676L120.22 14.6478C120.895 14.9944 121.65 15.1907 122.453 15.1907H126.163C128.826 15.1907 131 13.0305 131 10.3852V9.56498C131 6.9196 128.826 4.7594 126.163 4.7594ZM128.209 10.3852C128.209 11.5057 127.291 12.4183 126.163 12.4183H122.453C121.325 12.4183 120.406 11.5057 120.406 10.3852V9.56498C120.406 8.44445 121.325 7.53185 122.453 7.53185H126.163C127.291 7.53185 128.209 8.44445 128.209 9.56498V10.3852Z" fill="#F7F8FD"/>
</g>
</g>
</g>
<g id="Group_6">
<g id="Group_7">
<path id="Vector_6" d="M33.9214 15.5026C33.1422 15.5026 32.4212 15.3177 31.7584 14.9365C31.0955 14.5553 30.5722 13.9777 30.1885 13.2153L31.1304 12.6262C31.7468 13.8391 32.6771 14.4513 33.9097 14.4513C34.6191 14.4513 35.2005 14.255 35.6424 13.8622C36.0843 13.4694 36.3169 13.0074 36.3169 12.4644C36.3169 11.7713 35.875 11.2053 34.9796 10.7547C34.747 10.6392 34.3167 10.4544 33.712 10.2118C33.1073 9.96922 32.6887 9.78439 32.4445 9.65732C31.3281 9.07972 30.7699 8.25954 30.7699 7.20832C30.7699 6.41124 31.0606 5.75278 31.6537 5.2214C32.2352 4.69001 33.0259 4.42432 34.0144 4.42432C35.4564 4.42432 36.5262 4.97881 37.1891 6.07624L36.3634 6.74624C35.8634 5.8914 35.0726 5.47554 33.9911 5.47554C33.3283 5.47554 32.8282 5.63726 32.4561 5.96072C32.0956 6.28417 31.9096 6.68848 31.9096 7.18522C31.9096 7.86678 32.2933 8.39816 33.0492 8.76782C33.2353 8.84869 33.6306 9.01041 34.247 9.26455C34.8633 9.51869 35.3285 9.72663 35.6424 9.8768C36.2472 10.1656 36.7123 10.5006 37.0263 10.8934C37.3403 11.2861 37.5031 11.7829 37.5031 12.3836C37.5031 13.2615 37.1658 14.0008 36.4914 14.6015C35.8285 15.2022 34.968 15.5026 33.9214 15.5026Z" fill="#F7F8FD"/>
<path id="Vector_7" d="M49.3756 9.56489C49.3756 9.70352 49.3524 10.0154 49.3175 10.489H40.433C40.526 11.6558 40.9446 12.5915 41.6773 13.3193C42.4099 14.047 43.4216 14.4051 44.7124 14.4051C45.3985 14.4051 46.0962 14.2896 46.8056 14.0586C47.515 13.8275 48.1081 13.5272 48.5848 13.146L49.143 14.047C48.6314 14.4513 47.9801 14.7979 47.1894 15.0751C46.3986 15.3524 45.5729 15.491 44.7008 15.491C43.7705 15.491 42.9332 15.3293 42.2122 15.0174C41.4912 14.7055 40.9097 14.2781 40.4795 13.7582C40.0492 13.2268 39.7352 12.6492 39.5259 12.0023C39.3166 11.367 39.2119 10.6854 39.2119 9.98076C39.2119 8.39815 39.6887 7.09279 40.6539 6.06468C41.6191 5.03656 42.8867 4.51672 44.4682 4.51672C45.8869 4.51672 47.0614 4.96725 47.9918 5.87984C48.9104 6.79244 49.3756 8.01694 49.3756 9.56489ZM44.4566 5.6026C43.3518 5.6026 42.4331 5.94916 41.7005 6.64227C40.9679 7.33538 40.5492 8.25953 40.433 9.40317H48.1546C48.1429 8.23643 47.7941 7.31228 47.108 6.63072C46.4219 5.9376 45.5381 5.6026 44.4566 5.6026Z" fill="#F7F8FD"/>
<path id="Vector_8" d="M51.8184 15.26V4.7709H52.958V6.6192C53.272 5.92609 53.7488 5.3947 54.3884 5.03659C55.0279 4.67848 55.7722 4.49365 56.6327 4.49365C57.8189 4.49365 58.8074 4.87486 59.6097 5.64884C60.4121 6.42282 60.8192 7.50869 60.8192 8.91802V15.2485H59.633V9.12596C59.633 8.02853 59.3539 7.16214 58.7957 6.52678C58.2375 5.89143 57.47 5.57953 56.4932 5.57953C55.5745 5.57953 54.7605 5.89143 54.0511 6.52678C53.3418 7.16214 52.9929 8.10939 52.9929 9.35699V15.2369H51.8184V15.26Z" fill="#F7F8FD"/>
<path id="Vector_9" d="M72.6224 0.462036H73.8085V15.2715H72.6224V13.2269C72.1805 13.9546 71.5874 14.5322 70.8664 14.9365C70.1454 15.3409 69.3314 15.5488 68.436 15.5488C66.9358 15.5488 65.6799 15.0174 64.6798 13.9546C63.6797 12.8919 63.1797 11.5865 63.1797 10.0385C63.1797 8.49059 63.6797 7.19678 64.6798 6.13401C65.6799 5.07124 66.9358 4.5514 68.436 4.5514C69.3314 4.5514 70.1454 4.75934 70.8664 5.16365C71.5874 5.56797 72.1805 6.13401 72.6224 6.85022V0.462036ZM68.5057 14.4398C69.7268 14.4398 70.7385 14.0124 71.5293 13.146C72.32 12.2796 72.7154 11.2284 72.7154 9.99234C72.7154 8.77939 72.32 7.73972 71.5293 6.89643C70.7385 6.04159 69.7384 5.62573 68.5057 5.62573C67.2963 5.62573 66.3079 6.05315 65.5404 6.89643C64.7729 7.75127 64.3891 8.79094 64.3891 10.0385C64.3891 11.2861 64.7729 12.3258 65.5404 13.1807C66.2962 14.0124 67.2847 14.4398 68.5057 14.4398Z" fill="#F7F8FD"/>
</g>
</g>
<g id="Group_8">
<path id="Vector_10" d="M16.8394 7.1275H5.68723C5.11741 7.1275 4.64062 7.58958 4.64062 8.16717C4.64062 8.73321 5.10578 9.20684 5.68723 9.20684H16.8394C17.4092 9.20684 17.886 8.74477 17.886 8.16717C17.886 7.58958 17.4208 7.1275 16.8394 7.1275Z" fill="white"/>
<path id="Vector_11" d="M16.8393 12.3143H10.1062C9.53636 12.3143 9.05957 11.8522 9.05957 11.2747C9.05957 10.7086 9.52473 10.235 10.1062 10.235H16.8393C17.4091 10.235 17.8859 10.6971 17.8859 11.2747C17.8859 11.8407 17.4208 12.3143 16.8393 12.3143Z" fill="white"/>
<path id="Vector_12" d="M16.8509 3.99695H14.5251C13.9437 3.99695 13.4785 4.45902 13.4785 5.03662C13.4785 5.60266 13.9437 6.06473 14.5135 6.06473H16.8509C17.4207 6.06473 17.8859 5.60266 17.8859 5.03662V5.02507C17.8859 4.45902 17.4207 3.99695 16.8509 3.99695Z" fill="white"/>
</g>
</g>
</svg>
