<svg width="325" height="66" viewBox="0 0 325 66" fill="none" xmlns="http://www.w3.org/2000/svg">
<path d="M69.2024 20.1871C69.1531 20.1136 69.1284 20.0646 69.1284 20.0646C69.1284 20.0646 69.1284 20.0401 69.1038 20.0401C66.5142 15.5568 61.9764 12.5679 56.9206 11.8575C56.8959 11.8575 56.8959 11.8575 56.8713 11.8575C55.8355 11.7105 55.1696 11.7105 55.0709 11.7105C55.0463 11.7105 55.0216 11.7105 54.9723 11.7105C54.8736 11.7105 54.7503 11.7105 54.6517 11.7105H40.2242C31.0252 11.7105 23.5771 19.1091 23.5771 28.2472V30.2316C23.5771 33.588 24.5883 36.7973 26.512 39.5657C28.3123 42.1626 30.7785 44.1715 33.664 45.4209C39.2131 53.0646 45.8472 53.3096 46.1185 53.3096L56.1314 53.4076V46.7194C57.4878 46.6214 59.7074 46.2294 62.223 44.931C67.5994 42.1871 71.2987 36.6258 71.2987 30.2071V29.9621C71.3234 29.5457 71.3234 29.1292 71.2987 28.6882V28.2227C71.3234 25.4298 70.5835 22.637 69.2024 20.1871ZM68.8572 29.9621C68.8572 29.9866 68.8572 30.0356 68.8572 30.0601C68.8572 30.1581 68.8572 30.2561 68.8325 30.3541C68.8325 30.4276 68.8325 30.4766 68.8078 30.5501C68.8078 30.6236 68.8078 30.6726 68.7832 30.7461C68.7832 30.8196 68.7832 30.8686 68.7585 30.9421C68.7585 31.0156 68.7585 31.0891 68.7338 31.1381C68.7338 31.2116 68.7092 31.2606 68.7092 31.3341C68.7092 31.4076 68.6845 31.4566 68.6845 31.5301C68.6845 31.6036 68.6599 31.6526 68.6599 31.7261C68.6599 31.7996 68.6352 31.8486 68.6352 31.922C68.6352 31.9955 68.6105 32.0445 68.6105 32.118C68.6105 32.1915 68.5859 32.265 68.5859 32.314C68.5859 32.3875 68.5612 32.4365 68.5612 32.51C68.5365 32.5835 68.5365 32.657 68.5119 32.7305C68.5119 32.7795 68.4872 32.853 68.4626 32.902C68.4379 32.9755 68.4379 33.049 68.4132 33.1225C68.3886 33.1715 68.3886 33.245 68.3639 33.294C68.3393 33.3675 68.3392 33.441 68.3146 33.5145C68.2899 33.5635 68.2899 33.6125 68.2653 33.686C68.2406 33.7595 68.2159 33.833 68.2159 33.9065C68.1913 33.9555 68.1913 34.0045 68.1666 34.0535C68.1419 34.1269 68.1173 34.2004 68.0926 34.2984C68.068 34.3474 68.068 34.3964 68.0433 34.4454C68.0186 34.5189 67.994 34.6169 67.9693 34.6904C67.9447 34.7394 67.9446 34.7884 67.92 34.8374C67.8953 34.9109 67.8707 34.9844 67.846 35.0579C67.8213 35.1069 67.7967 35.1559 67.7967 35.2049C67.772 35.2784 67.7474 35.3519 67.7227 35.4254C67.698 35.4989 67.6734 35.5724 67.6487 35.6214C67.624 35.6704 67.5994 35.7439 67.5747 35.7929C67.5254 35.9154 67.4761 36.0379 67.4267 36.1604C67.4021 36.2339 67.3774 36.3073 67.3281 36.3563C67.3281 36.3808 67.3034 36.4053 67.3034 36.4298C67.2788 36.4788 67.2541 36.5278 67.2294 36.5768C67.2048 36.6013 67.2048 36.6258 67.1801 36.6503C67.1555 36.6993 67.1308 36.7483 67.1061 36.7973C67.1061 36.8218 67.0815 36.8463 67.0815 36.8463C67.0321 36.9198 67.0075 36.9933 66.9582 37.0668C66.9582 37.0913 66.9335 37.0913 66.9335 37.1158C66.9088 37.1648 66.8595 37.2383 66.8348 37.2873C66.8102 37.3118 66.8102 37.3363 66.7855 37.3608C66.7609 37.4098 66.7115 37.4588 66.6869 37.5078C66.6622 37.5323 66.6622 37.5568 66.6376 37.5813C66.5882 37.6303 66.5636 37.7038 66.5142 37.7528C66.5142 37.7773 66.4896 37.7773 66.4896 37.8018C66.4403 37.8753 66.3909 37.9488 66.3416 38.0223C66.3169 38.0468 66.3169 38.0713 66.2923 38.0713C66.2429 38.1203 66.2183 38.1693 66.169 38.2183C66.1443 38.2428 66.1443 38.2673 66.1196 38.2918C66.095 38.3408 66.0457 38.3898 66.021 38.4388C65.9963 38.4633 65.9963 38.4877 65.9717 38.5122C65.9223 38.5612 65.873 38.6347 65.8237 38.6837C65.8237 38.6837 65.8237 38.7082 65.799 38.7082C65.7497 38.7817 65.7004 38.8307 65.6511 38.9042C65.6264 38.9287 65.6264 38.9532 65.6017 38.9532C65.5771 39.0022 65.5277 39.0512 65.5031 39.0757C65.4784 39.1002 65.4784 39.1247 65.4538 39.1492C65.4291 39.1982 65.3798 39.2227 65.3551 39.2717C65.3304 39.2962 65.3304 39.3207 65.3058 39.3207C65.2565 39.3697 65.2071 39.4432 65.1578 39.4922L65.1331 39.5167C65.0838 39.5657 65.0592 39.6147 65.0098 39.6392C65.0098 39.6392 65.0098 39.6637 64.9852 39.6637C64.9852 39.6637 63.8507 40.8641 63.2095 41.3541C62.8642 41.6236 62.4943 41.8686 62.149 42.0891C60.324 43.216 58.277 43.9265 56.1314 44.147L53.6652 44.2205V50.9577L46.1678 50.8842C45.8965 50.8842 41.9752 50.6392 37.8813 46.6214C36.4755 45.1759 35.933 44.49 35.3164 43.461V43.4365C33.1708 42.0646 32.5296 41.6726 31.8144 41.0356L31.765 41.0111C28.411 38.6347 26.2653 34.8864 26.0927 30.7951C26.0927 30.6236 26.0927 30.4276 26.0927 30.2561V28.2717C26.0927 20.4811 32.4556 14.1849 40.2735 14.1849H56.2794V14.1604C57.0686 14.2584 58.1784 14.5768 59.4362 15.0423C62.6423 16.2183 65.1578 18.3252 66.9582 21.314C66.9582 21.314 66.9582 21.314 66.9582 21.3385C67.1555 21.706 68.6599 24.6704 68.8078 28.7372L68.8572 29.9621Z" fill="#C30064"/>
<path d="M199.765 21.0445C202.749 21.0445 205.265 22.1715 207.386 24.4009C209.482 26.6303 210.543 29.3742 210.543 32.6325C210.543 35.8664 209.482 38.6102 207.386 40.8641C205.289 43.0935 202.749 44.2205 199.765 44.2205C196.682 44.2205 194.29 43.1425 192.613 41.0111V52.3786H186.916V21.657H192.613V24.2539C194.29 22.1225 196.682 21.0445 199.765 21.0445ZM194.339 37.0668C195.498 38.2183 196.954 38.8062 198.705 38.8062C200.48 38.8062 201.935 38.2183 203.094 37.0668C204.254 35.9154 204.846 34.4209 204.846 32.608C204.846 30.7951 204.254 29.3007 203.094 28.1492C201.935 26.9978 200.456 26.4098 198.705 26.4098C196.929 26.4098 195.474 26.9978 194.339 28.1492C193.18 29.3007 192.613 30.7951 192.613 32.608C192.613 34.4209 193.18 35.9154 194.339 37.0668Z" fill="white"/>
<path d="M233.528 21.657H239.225V43.5835H233.528V40.9866C231.826 43.118 229.434 44.196 226.327 44.196C223.392 44.196 220.852 43.069 218.755 40.8396C216.659 38.6102 215.599 35.8664 215.599 32.608C215.599 29.3742 216.659 26.6303 218.755 24.3764C220.852 22.147 223.392 21.02 226.327 21.02C229.41 21.02 231.826 22.098 233.528 24.2294V21.657ZM223.022 37.0668C224.181 38.2183 225.636 38.8062 227.387 38.8062C229.163 38.8062 230.618 38.2183 231.777 37.0668C232.936 35.9154 233.528 34.4209 233.528 32.608C233.528 30.7951 232.936 29.3007 231.777 28.1492C230.618 26.9978 229.163 26.4098 227.387 26.4098C225.612 26.4098 224.156 26.9978 223.022 28.1492C221.863 29.3007 221.296 30.7951 221.296 32.608C221.296 34.4209 221.888 35.9154 223.022 37.0668Z" fill="white"/>
<path d="M257.104 44.196C253.775 44.196 251.013 43.0935 248.793 40.8641C246.574 38.6347 245.464 35.8909 245.464 32.608C245.464 29.3252 246.574 26.5813 248.793 24.3519C251.013 22.1225 253.8 21.02 257.104 21.02C259.25 21.02 261.198 21.5345 262.974 22.5635C264.75 23.5924 266.082 24.9644 266.994 26.6793L262.086 29.5212C261.642 28.6147 260.976 27.9042 260.089 27.3653C259.201 26.8508 258.19 26.5813 257.055 26.5813C255.353 26.5813 253.948 27.1448 252.813 28.2717C251.703 29.3987 251.136 30.8441 251.136 32.5835C251.136 34.2984 251.703 35.7439 252.813 36.8708C253.923 37.9978 255.353 38.5612 257.055 38.5612C258.214 38.5612 259.225 38.3163 260.113 37.8018C261.001 37.2873 261.692 36.5768 262.111 35.6704L267.043 38.4878C266.082 40.2027 264.7 41.5991 262.949 42.6281C261.198 43.6815 259.25 44.196 257.104 44.196Z" fill="white"/>
<path d="M291.139 21.804H283.271C277.624 21.804 273.012 26.3853 273.012 31.9955V33.735C273.012 36.0379 273.801 38.1938 275.133 39.9087C274.812 42.0156 274.491 43.8775 274.491 43.8775L278.536 42.7751C279.966 43.51 281.57 43.9265 283.271 43.9265H291.139C296.786 43.9265 301.398 39.3452 301.398 33.735V31.9955C301.398 26.3853 296.786 21.804 291.139 21.804ZM295.479 33.735C295.479 36.1114 293.531 38.0468 291.139 38.0468H283.271C280.879 38.0468 278.931 36.1114 278.931 33.735V31.9955C278.931 29.6192 280.879 27.6837 283.271 27.6837H291.139C293.531 27.6837 295.479 29.6192 295.479 31.9955V33.735Z" fill="white"/>
<path d="M95.5172 44.588C93.8648 44.588 92.3358 44.196 90.93 43.3875C89.5242 42.5791 88.4144 41.3541 87.6006 39.7372L89.5982 38.4878C90.9053 41.0601 92.8783 42.3586 95.4925 42.3586C96.9969 42.3586 98.23 41.9421 99.1672 41.1091C100.104 40.2762 100.598 39.2962 100.598 38.1448C100.598 36.6748 99.6605 35.4744 97.7615 34.5189C97.2682 34.2739 96.3557 33.882 95.0733 33.3675C93.7908 32.853 92.903 32.461 92.3851 32.1915C90.0175 30.9666 88.8337 29.2272 88.8337 26.9978C88.8337 25.3073 89.4503 23.9109 90.708 22.784C91.9411 21.657 93.6182 21.0935 95.7145 21.0935C98.7726 21.0935 101.042 22.2695 102.447 24.5969L100.696 26.0178C99.6358 24.2049 97.9588 23.3229 95.6652 23.3229C94.2594 23.3229 93.1989 23.6659 92.4097 24.3519C91.6452 25.0379 91.2506 25.8953 91.2506 26.9488C91.2506 28.3942 92.0645 29.5212 93.6675 30.3051C94.0621 30.4766 94.9006 30.8196 96.2077 31.3586C97.5148 31.8976 98.5013 32.3385 99.1672 32.657C100.45 33.2695 101.436 33.98 102.102 34.8129C102.768 35.6459 103.113 36.6993 103.113 37.9733C103.113 39.8352 102.398 41.4031 100.968 42.6771C99.5618 43.951 97.7368 44.588 95.5172 44.588Z" fill="white"/>
<path d="M128.293 31.9955C128.293 32.2895 128.244 32.951 128.17 33.9555H109.328C109.525 36.4298 110.413 38.4143 111.967 39.9577C113.52 41.5011 115.666 42.2606 118.404 42.2606C119.859 42.2606 121.338 42.0156 122.843 41.5256C124.347 41.0356 125.605 40.3987 126.616 39.5902L127.8 41.5011C126.715 42.3586 125.334 43.0935 123.657 43.6815C121.98 44.2695 120.229 44.5635 118.379 44.5635C116.406 44.5635 114.63 44.2205 113.101 43.559C111.572 42.8976 110.339 41.9911 109.426 40.8886C108.514 39.7617 107.848 38.5367 107.404 37.1648C106.96 35.8174 106.738 34.3719 106.738 32.8775C106.738 29.5212 107.749 26.7528 109.796 24.5724C111.843 22.392 114.532 21.2895 117.886 21.2895C120.894 21.2895 123.385 22.245 125.358 24.1804C127.307 26.1158 128.293 28.7127 128.293 31.9955ZM117.861 23.5924C115.518 23.5924 113.57 24.3274 112.016 25.7973C110.462 27.2673 109.574 29.2272 109.328 31.6526H125.704C125.679 29.1782 124.939 27.2183 123.484 25.7728C122.029 24.3029 120.155 23.5924 117.861 23.5924Z" fill="white"/>
<path d="M133.473 44.0735V21.8285H135.89V25.7483C136.555 24.2784 137.567 23.1514 138.923 22.392C140.279 21.6325 141.858 21.2405 143.683 21.2405C146.198 21.2405 148.295 22.049 149.996 23.6904C151.698 25.3318 152.561 27.6347 152.561 30.6236V44.049H150.046V31.0646C150.046 28.7372 149.454 26.8998 148.27 25.5523C147.086 24.2049 145.459 23.5434 143.387 23.5434C141.439 23.5434 139.712 24.2049 138.208 25.5523C136.703 26.8998 135.964 28.9087 135.964 31.5546V44.0245H133.473V44.0735Z" fill="white"/>
<path d="M177.593 12.6904H180.109V44.098H177.593V39.7617C176.656 41.3051 175.398 42.5301 173.869 43.3875C172.34 44.245 170.614 44.686 168.715 44.686C165.533 44.686 162.87 43.559 160.749 41.3051C158.628 39.0512 157.567 36.2828 157.567 33C157.567 29.7171 158.628 26.9733 160.749 24.7194C162.87 22.4655 165.533 21.363 168.715 21.363C170.614 21.363 172.34 21.804 173.869 22.6615C175.398 23.5189 176.656 24.7194 177.593 26.2383V12.6904ZM168.863 42.3341C171.452 42.3341 173.598 41.4276 175.275 39.5902C176.952 37.7528 177.79 35.5234 177.79 32.902C177.79 30.3296 176.952 28.1247 175.275 26.3363C173.598 24.5234 171.477 23.6414 168.863 23.6414C166.298 23.6414 164.202 24.5479 162.574 26.3363C160.946 28.1492 160.132 30.3541 160.132 33C160.132 35.6459 160.946 37.8508 162.574 39.6637C164.177 41.4276 166.273 42.3341 168.863 42.3341Z" fill="white"/>
<path d="M59.2878 26.8263H35.6366C34.4281 26.8263 33.417 27.8062 33.417 29.0312C33.417 30.2316 34.4035 31.2361 35.6366 31.2361H59.2878C60.4962 31.2361 61.5074 30.2561 61.5074 29.0312C61.5074 27.8062 60.5209 26.8263 59.2878 26.8263Z" fill="#C30064"/>
<path d="M59.2881 37.8263H45.0087C43.8002 37.8263 42.7891 36.8463 42.7891 35.6214C42.7891 34.4209 43.7756 33.4165 45.0087 33.4165H59.2881C60.4966 33.4165 61.5078 34.3964 61.5078 35.6214C61.5078 36.8218 60.5213 37.8263 59.2881 37.8263Z" fill="#C30064"/>
<path d="M59.3122 20.1871H54.3798C53.1466 20.1871 52.1602 21.167 52.1602 22.392C52.1602 23.5924 53.1466 24.5724 54.3551 24.5724H59.3122C60.5207 24.5724 61.5072 23.5924 61.5072 22.392V22.3675C61.5072 21.167 60.5207 20.1871 59.3122 20.1871Z" fill="#C30064"/>
</svg>
