<svg width="79" height="18" viewBox="0 0 79 18" fill="none" xmlns="http://www.w3.org/2000/svg">
<g id="Logo-Paco">
<g id="Group">
<path id="Vector" d="M34.8028 3.61337C36.0755 3.61337 37.1616 4.09516 38.0625 5.05872C38.9634 6.02228 39.4132 7.20446 39.4132 8.60246C39.4132 10.0005 38.9621 11.1826 38.0625 12.1462C37.1616 13.1098 36.0755 13.5916 34.8028 13.5916C33.48 13.5916 32.4594 13.1321 31.7409 12.2117V17.1061H29.3027V3.87654H31.7409V4.99188C32.4594 4.07288 33.48 3.61337 34.8028 3.61337ZM32.4789 10.5212C32.9704 11.0197 33.5942 11.2676 34.3503 11.2676C35.1064 11.2676 35.733 11.0183 36.2301 10.5212C36.7272 10.0241 36.9764 9.38501 36.9764 8.60246C36.9764 7.82131 36.7272 7.18218 36.2301 6.68369C35.7316 6.18659 35.105 5.93735 34.3503 5.93735C33.5942 5.93735 32.9704 6.18659 32.4789 6.68369C31.9873 7.18218 31.7423 7.82131 31.7423 8.60246C31.7423 9.38362 31.9873 10.0227 32.4789 10.5212Z" fill="white"/>
<path id="Vector_2" d="M49.2602 3.87793H51.6984V13.327H49.2602V12.2117C48.5292 13.1321 47.503 13.5916 46.1801 13.5916C44.92 13.5916 43.8395 13.1098 42.9386 12.1462C42.0376 11.1826 41.5879 10.0005 41.5879 8.60246C41.5879 7.20446 42.0376 6.02228 42.9386 5.05872C43.8395 4.09516 44.92 3.61337 46.1801 3.61337C47.503 3.61337 48.5292 4.07288 49.2602 4.99328V3.87793V3.87793ZM44.7626 10.5212C45.2542 11.0197 45.878 11.2676 46.6341 11.2676C47.3902 11.2676 48.0168 11.0183 48.5139 10.5212C49.011 10.0241 49.2602 9.38501 49.2602 8.60246C49.2602 7.82131 49.011 7.18218 48.5139 6.68369C48.0154 6.18659 47.3888 5.93735 46.6341 5.93735C45.8794 5.93735 45.2542 6.18659 44.7626 6.68369C44.2711 7.18218 44.026 7.82131 44.026 8.60246C44.026 9.38362 44.2711 10.0227 44.7626 10.5212Z" fill="white"/>
<path id="Vector_3" d="M59.3524 13.5917C57.9279 13.5917 56.7416 13.1127 55.7905 12.1547C54.8395 11.1967 54.3633 10.0131 54.3633 8.6012C54.3633 7.19067 54.8381 6.0057 55.7905 5.04771C56.7416 4.08971 57.9293 3.61072 59.3524 3.61072C60.2714 3.61072 61.1096 3.83072 61.8657 4.27212C62.6218 4.71353 63.1955 5.30531 63.5854 6.04887L61.487 7.277C61.2976 6.88711 61.0108 6.57799 60.6264 6.35103C60.2421 6.12406 59.8105 6.01127 59.3315 6.01127C58.6005 6.01127 57.9961 6.25356 57.5171 6.73952C57.0382 7.22408 56.7986 7.84511 56.7986 8.6012C56.7986 9.34476 57.0382 9.95882 57.5171 10.4434C57.9961 10.928 58.6005 11.1716 59.3315 11.1716C59.823 11.1716 60.2602 11.0616 60.6446 10.8402C61.0289 10.6202 61.3157 10.3139 61.5051 9.92401L63.6216 11.134C63.2052 11.8776 62.6204 12.4736 61.8643 12.9205C61.111 13.3689 60.2728 13.5917 59.3524 13.5917Z" fill="white"/>
</g>
<path id="Vector_4" d="M73.9282 3.93781H70.5612C68.1468 3.93781 66.1709 5.91367 66.1709 8.32815V9.08146C66.1709 10.0798 66.5093 11.0016 67.0746 11.741C66.9423 12.6447 66.8045 13.4481 66.8045 13.4481L68.5339 12.9719C69.141 13.2908 69.8302 13.4718 70.5612 13.4718H73.9282C76.3426 13.4718 78.3185 11.4959 78.3185 9.08146V8.32815C78.3185 5.91367 76.3426 3.93781 73.9282 3.93781ZM75.7815 9.08007C75.7815 10.1021 74.9502 10.9334 73.9282 10.9334H70.5612C69.5392 10.9334 68.7079 10.1021 68.7079 9.08007V8.32676C68.7079 7.30471 69.5392 6.47343 70.5612 6.47343H73.9282C74.9502 6.47343 75.7815 7.30471 75.7815 8.32676V9.08007Z" fill="white"/>
<g id="Group_2">
<path id="Vector_5" d="M10.3577 9.34044C11.4074 9.34044 12.2584 8.48948 12.2584 7.43977C12.2584 6.39006 11.4074 5.53909 10.3577 5.53909C9.30799 5.53909 8.45703 6.39006 8.45703 7.43977C8.45703 8.48948 9.30799 9.34044 10.3577 9.34044Z" fill="white"/>
<path id="Vector_6" d="M21.1369 7.33952V7.13762C21.1369 5.92202 20.8208 4.72036 20.2235 3.65793C20.2221 3.65654 20.2221 3.65375 20.2207 3.65236C20.2054 3.62172 20.1956 3.6078 20.1956 3.6078C20.1928 3.60362 20.1901 3.59944 20.1887 3.59527C19.0775 1.66118 17.1351 0.367604 14.9698 0.0668386C14.9629 0.0654461 14.9559 0.0640531 14.9489 0.0640531H14.9475C14.5047 -0.0013913 14.2165 2.32555e-06 14.1747 2.32555e-06C14.1622 2.32555e-06 14.1497 0.00139323 14.1371 0.00278566C14.0912 0.00139323 14.0452 2.32555e-06 14.0007 2.32555e-06H7.81689C3.88187 2.32555e-06 0.680664 3.20121 0.680664 7.13623V7.98839C0.680664 9.43235 1.1151 10.8262 1.93525 12.0181C2.70666 13.139 3.7663 14.0079 5.00556 14.544C7.38802 17.8482 10.2244 17.9499 10.3456 17.9527L14.637 18V15.1149C15.2163 15.0731 16.1729 14.9088 17.2465 14.3435C19.5537 13.1599 21.1369 10.7552 21.1369 7.98839V7.88675C21.1425 7.7113 21.1425 7.52611 21.1369 7.33952ZM14.6384 9.80135L17.6684 12.8313C17.5152 12.9482 17.3634 13.0527 17.2144 13.1488C16.4347 13.6375 15.5546 13.9424 14.6384 14.0399V9.80135V9.80135ZM19.2919 4.15224C19.3783 4.31515 20.0202 5.58506 20.0828 7.34648V7.88118C20.0814 7.91042 20.0801 7.93827 20.0787 7.96751C20.0773 7.99675 20.0759 8.0246 20.0745 8.05384C20.0731 8.08308 20.0703 8.11093 20.0689 8.14017C20.0675 8.16941 20.0647 8.19866 20.0633 8.2265C20.0606 8.25435 20.0578 8.28359 20.055 8.31144C20.0522 8.34068 20.0494 8.36992 20.0466 8.39916C20.0439 8.42841 20.0397 8.45765 20.0369 8.48549C20.0341 8.51334 20.0299 8.54259 20.0271 8.57044C20.023 8.59828 20.0188 8.62752 20.016 8.65537C20.0118 8.68461 20.0076 8.71246 20.0035 8.7417C19.9993 8.76955 19.9951 8.79601 19.9895 8.82386C19.9854 8.8531 19.9798 8.88373 19.9756 8.91297C19.9714 8.93943 19.9659 8.96589 19.9603 8.99234C19.9547 9.02298 19.9492 9.05222 19.9436 9.08285C19.938 9.10931 19.9325 9.13437 19.9269 9.16083C19.9199 9.19146 19.9144 9.22209 19.9074 9.25273C19.9018 9.27779 19.8963 9.30285 19.8893 9.32653C19.8823 9.35855 19.8754 9.38918 19.867 9.42121C19.8614 9.44488 19.8545 9.46716 19.8489 9.49083C19.8406 9.52286 19.8322 9.55628 19.8239 9.5883C19.8183 9.60919 19.8113 9.63147 19.8057 9.65236C19.796 9.68577 19.7863 9.72059 19.7765 9.754C19.7709 9.77489 19.764 9.79577 19.757 9.81666C19.7459 9.85147 19.7361 9.88489 19.725 9.9197C19.718 9.94198 19.7097 9.96426 19.7027 9.98654C19.6916 10.0186 19.6818 10.052 19.6707 10.084C19.6623 10.1063 19.654 10.1286 19.647 10.1508C19.6359 10.1829 19.6247 10.2149 19.6122 10.2469C19.6011 10.2762 19.5885 10.3068 19.5774 10.336C19.5676 10.3597 19.5593 10.3848 19.5495 10.4084C19.5287 10.4614 19.5064 10.5143 19.4841 10.5672C19.4841 10.5686 19.4827 10.57 19.4827 10.57C19.4702 10.5992 19.4562 10.6285 19.4423 10.6591C19.4381 10.6688 19.4326 10.6772 19.4284 10.6869C19.4186 10.7078 19.4075 10.7287 19.3964 10.751C19.3908 10.7607 19.3852 10.7719 19.3797 10.7816C19.3671 10.8039 19.356 10.8262 19.3435 10.8485C19.3393 10.8568 19.3337 10.8652 19.3295 10.8735C19.3114 10.9042 19.2947 10.9348 19.2752 10.9654C19.2711 10.971 19.2683 10.978 19.2641 10.9835C19.2488 11.0086 19.2335 11.0337 19.2167 11.0601C19.2098 11.0699 19.2028 11.081 19.1973 11.0907C19.1833 11.113 19.1694 11.1339 19.1555 11.1562C19.1485 11.1659 19.1416 11.1771 19.1346 11.1868C19.1179 11.2119 19.1012 11.2356 19.0845 11.2606C19.0803 11.2676 19.0761 11.2745 19.0705 11.2801C19.0497 11.3107 19.0274 11.3414 19.0051 11.372C18.9995 11.3804 18.9926 11.3887 18.987 11.3971C18.9703 11.4194 18.955 11.4416 18.9383 11.4639C18.9299 11.4751 18.9229 11.4848 18.9146 11.4959C18.8993 11.5168 18.884 11.5377 18.8686 11.5586C18.8617 11.5683 18.8547 11.5781 18.8478 11.5864C18.8283 11.6129 18.8074 11.6394 18.7879 11.6644C18.7851 11.6672 18.7837 11.67 18.7809 11.6728C18.7586 11.702 18.7364 11.7299 18.7141 11.7577C18.7071 11.7661 18.7002 11.7744 18.6932 11.7842C18.6779 11.8037 18.6626 11.8218 18.6472 11.8413C18.6389 11.851 18.6319 11.8608 18.6236 11.8691C18.6083 11.8872 18.5943 11.9053 18.579 11.9234C18.5721 11.9318 18.5651 11.9401 18.5595 11.9471C18.5386 11.9722 18.5177 11.9958 18.4983 12.0195C18.4941 12.0237 18.4913 12.0278 18.4871 12.032C18.4704 12.0515 18.4537 12.071 18.4384 12.0891C18.4356 12.0919 18.4342 12.0947 18.4314 12.0975L14.683 8.3003V3.39754C14.683 3.39615 14.683 3.39615 14.683 3.39476V1.09306C15.0213 1.13901 15.5226 1.23509 16.0587 1.43421C17.4289 1.94245 18.515 2.8531 19.2892 4.13971C19.2905 4.14667 19.2905 4.14946 19.2919 4.15224ZM13.5844 8.51892C13.5844 8.54119 13.5816 8.56208 13.5844 8.58436V14.0706L8.67045 14.0733C7.42701 14.0733 6.63889 13.955 6.17521 13.8464C6.11255 13.8283 6.04989 13.8102 5.98723 13.7907C5.97888 13.7879 5.97052 13.7851 5.96217 13.7823C5.88697 13.7573 5.81178 13.7322 5.73659 13.7043C5.72963 13.7016 5.72267 13.6988 5.71571 13.6974C5.25203 12.8243 5.00835 11.8468 5.00835 10.8596V10.006C5.00835 6.65166 7.73752 3.92388 11.0905 3.92388H13.5844V8.51892V8.51892ZM1.73474 7.99118V7.13901C1.73474 3.77907 4.45834 1.05686 7.81689 1.05686H13.6331V2.8712H11.0905C7.14852 2.8712 3.95428 6.06684 3.95428 10.0074V10.861C3.95428 11.4667 4.03225 12.0682 4.18542 12.6503L4.16871 12.6391C2.70526 11.6018 1.78347 9.94477 1.73752 8.15271C1.73474 8.09701 1.73474 8.04409 1.73474 7.99118ZM10.3692 16.9014C10.2523 16.8972 8.5688 16.7997 6.81712 15.0578C7.14574 15.1037 7.47992 15.1274 7.81689 15.1274H13.583V16.9362L10.3692 16.9014Z" fill="white"/>
</g>
</g>
</svg>
