<svg width="24" height="24" viewBox="0 0 24 24" fill="none" xmlns="http://www.w3.org/2000/svg">
<g id="material-symbols:import-contacts-outline">
<path id="Vector" d="M6.5 16C7.28333 16 8.046 16.0877 8.788 16.263C9.53 16.4383 10.2673 16.7007 11 17.05V7.2C10.3167 6.8 9.59167 6.5 8.825 6.3C8.05833 6.1 7.28333 6 6.5 6C5.9 6 5.304 6.05833 4.712 6.175C4.12 6.29167 3.54933 6.46667 3 6.7V16.6C3.58333 16.4 4.16267 16.25 4.738 16.15C5.31333 16.05 5.90067 16 6.5 16ZM13 17.05C13.7333 16.7 14.4707 16.4373 15.212 16.262C15.9533 16.0867 16.716 15.9993 17.5 16C18.1 16 18.6877 16.05 19.263 16.15C19.8383 16.25 20.4173 16.4 21 16.6V6.7C20.45 6.46667 19.879 6.29167 19.287 6.175C18.695 6.05833 18.0993 6 17.5 6C16.7167 6 15.9417 6.1 15.175 6.3C14.4083 6.5 13.6833 6.8 13 7.2V17.05ZM12 20C11.2 19.3667 10.3333 18.875 9.4 18.525C8.46667 18.175 7.5 18 6.5 18C5.8 18 5.11233 18.0917 4.437 18.275C3.76167 18.4583 3.116 18.7167 2.5 19.05C2.15 19.2333 1.81267 19.225 1.488 19.025C1.16333 18.825 1.00067 18.5333 1 18.15V6.1C1 5.91667 1.046 5.74167 1.138 5.575C1.23 5.40833 1.36733 5.28333 1.55 5.2C2.31667 4.8 3.11667 4.5 3.95 4.3C4.78333 4.1 5.63333 4 6.5 4C7.46667 4 8.41267 4.125 9.338 4.375C10.2633 4.625 11.1507 5 12 5.5C12.85 5 13.7377 4.625 14.663 4.375C15.5883 4.125 16.534 4 17.5 4C18.3667 4 19.2167 4.1 20.05 4.3C20.8833 4.5 21.6833 4.8 22.45 5.2C22.6333 5.28333 22.771 5.40833 22.863 5.575C22.955 5.74167 23.0007 5.91667 23 6.1V18.15C23 18.5333 22.8377 18.825 22.513 19.025C22.1883 19.225 21.8507 19.2333 21.5 19.05C20.8833 18.7167 20.2377 18.4583 19.563 18.275C18.8883 18.0917 18.2007 18 17.5 18C16.5 18 15.5333 18.175 14.6 18.525C13.6667 18.875 12.8 19.3667 12 20Z" fill="#6F42C1"/>
</g>
</svg>
