<svg width="24" height="24" viewBox="0 0 24 24" fill="none" xmlns="http://www.w3.org/2000/svg">
<g id="mingcute:building-5-line" clip-path="url(#clip0_3249_36392)">
<g id="Group">
<path id="Vector" d="M15 3C15.5304 3 16.0391 3.21071 16.4142 3.58579C16.7893 3.96086 17 4.46957 17 5V9H19C19.5304 9 20.0391 9.21071 20.4142 9.58579C20.7893 9.96086 21 10.4696 21 11V19C21.2652 19 21.5196 19.1054 21.7071 19.2929C21.8946 19.4804 22 19.7348 22 20C22 20.2652 21.8946 20.5196 21.7071 20.7071C21.5196 20.8946 21.2652 21 21 21H3C2.73478 21 2.48043 20.8946 2.29289 20.7071C2.10536 20.5196 2 20.2652 2 20C2 19.7348 2.10536 19.4804 2.29289 19.2929C2.48043 19.1054 2.73478 19 3 19V9C3 8.46957 3.21071 7.96086 3.58579 7.58579C3.96086 7.21071 4.46957 7 5 7H7V5C7 4.46957 7.21071 3.96086 7.58579 3.58579C7.96086 3.21071 8.46957 3 9 3H15ZM7 9H5V19H7V9ZM19 11H17V19H19V11ZM15 5H9V19H15V5ZM13 15V17H11V15H13ZM13 11V13H11V11H13ZM13 7V9H11V7H13Z" fill="#3D5170"/>
</g>
</g>
<defs>
<clipPath id="clip0_3249_36392">
<rect width="24" height="24" fill="white"/>
</clipPath>
</defs>
</svg>
