<svg width="24" height="24" viewBox="0 0 24 24" fill="none" xmlns="http://www.w3.org/2000/svg">
<g id="tabler:dashboard">
<g id="Group">
<path id="Vector" d="M13.45 11.55L15.5 9.5M10 13C10 13.5304 10.2107 14.0391 10.5858 14.4142C10.9609 14.7893 11.4696 15 12 15C12.5304 15 13.0391 14.7893 13.4142 14.4142C13.7893 14.0391 14 13.5304 14 13C14 12.4696 13.7893 11.9609 13.4142 11.5858C13.0391 11.2107 12.5304 11 12 11C11.4696 11 10.9609 11.2107 10.5858 11.5858C10.2107 11.9609 10 12.4696 10 13Z" stroke="#C30064" stroke-width="1.8" stroke-linecap="round" stroke-linejoin="round"/>
<path id="Vector_2" d="M6.4 20C4.93815 18.8381 3.87391 17.2502 3.35478 15.4564C2.83564 13.6627 2.88732 11.7519 3.50265 9.98878C4.11797 8.2257 5.26647 6.69768 6.78899 5.61647C8.3115 4.53526 10.1326 3.95441 12 3.95441C13.8674 3.95441 15.6885 4.53526 17.211 5.61647C18.7335 6.69768 19.882 8.2257 20.4974 9.98878C21.1127 11.7519 21.1644 13.6627 20.6452 15.4564C20.1261 17.2502 19.0619 18.8381 17.6 20H6.4Z" stroke="#C30064" stroke-width="1.8" stroke-linecap="round" stroke-linejoin="round"/>
</g>
</g>
</svg>
