<svg width="96" height="109" viewBox="0 0 96 109" fill="none" xmlns="http://www.w3.org/2000/svg">
<path id="Vector" d="M89.6895 39.4765H87.0928V26.9487C87.0906 26.8692 87.083 26.7898 87.0698 26.7113C87.0734 26.208 86.8937 25.7206 86.5642 25.3402L65.7217 1.52944L65.7064 1.51413C65.5815 1.37929 65.4399 1.26089 65.2851 1.16177L65.1472 1.07751C65.0149 1.00389 64.8749 0.944823 64.7298 0.901334L64.6149 0.863036C64.4558 0.823362 64.2925 0.802791 64.1285 0.801758H12.8954C10.5553 0.801758 8.65566 2.70524 8.65566 5.0415V39.4726H6.05896C2.71159 39.4726 0 42.1842 0 45.5316V77.0443C0 80.3879 2.71542 83.1033 6.05896 83.1033H8.65566V104.674C8.65566 107.01 10.5553 108.913 12.8954 108.913H82.853C85.1893 108.913 87.0928 107.01 87.0928 104.674V83.1033H89.6895C93.033 83.1033 95.7484 80.3917 95.7484 77.0443V45.5316C95.7484 42.1881 93.0368 39.4765 89.6895 39.4765ZM12.8954 5.0415H62.0067V26.7343C62.0067 27.9062 62.9565 28.8522 64.1285 28.8522H82.8569V39.4726H12.8954V5.0415ZM44.6149 63.134C39.4675 61.2956 36.0704 58.4462 36.0704 53.946C36.0704 48.6645 40.5284 44.6699 47.7861 44.6699C51.325 44.6699 53.8489 45.3593 55.6873 46.2287L54.1247 51.8318C52.122 50.8565 49.9218 50.3546 47.6942 50.365C44.6609 50.365 43.1902 51.7859 43.1902 53.3485C43.1902 55.3248 44.8869 56.1941 48.9313 57.7108C54.4004 59.733 56.9244 62.5787 56.9244 66.9448C56.9244 72.1382 52.9757 76.5464 44.4771 76.5464C40.9382 76.5464 37.4491 75.5813 35.7027 74.6162L37.1274 68.8751C39.5324 70.103 42.1869 70.7634 44.8869 70.8054C48.104 70.8054 49.8045 69.4687 49.8045 67.4503C49.8045 65.5201 48.3376 64.4209 44.6149 63.134ZM8.13096 61.0199C8.13096 50.499 15.6644 44.666 25.0325 44.666C28.6633 44.666 31.417 45.3976 32.6579 45.9989L31.1872 51.5561C29.3268 50.7749 27.3259 50.3838 25.3082 50.4071C19.7969 50.4071 15.4806 53.7583 15.4806 60.6484C15.4806 66.8031 19.1535 70.7096 25.3542 70.7096C27.5143 70.7096 29.8122 70.2998 31.2331 69.6985L32.2481 75.2098C31.0072 75.8034 28.0658 76.5426 24.3469 76.5426C13.6422 76.5464 8.13096 69.8402 8.13096 61.0199ZM82.853 103.532H12.8954V83.1071H82.853V103.532ZM77.1924 76.0868H69.0155L59.0959 45.1256H66.7673L70.5321 58.2202C71.5854 61.9391 72.5505 65.432 73.2859 69.2887H73.4237C74.2069 65.6084 75.1409 61.9617 76.2234 58.3581L80.1759 45.1295H87.6137L77.1924 76.0868Z" fill="#B3B8C1"/>
</svg>
